<svg width="24" height="30" viewBox="0 0 24 30" fill="none" xmlns="http://www.w3.org/2000/svg">
    <path fill-rule="evenodd" clip-rule="evenodd" d="M24 9.107V30H0V0h14.727L24 9.107zm-9.273-7.592v7.592h7.73l-7.73-7.592zm-1.09-.444H1.09V28.93h21.818v-18.75h-9.273V1.07z" fill="#222"/>
    <path d="M6.583 17.697L4.459 21h.783l1.719-2.709L8.68 21h.882l-2.097-3.303 1.998-3.132h-.801l-1.593 2.529-1.602-2.529h-.864l1.98 3.132zm4.301-3.132V21h3.726v-.639h-2.942v-5.796h-.784zm6.913 6.516c1.279 0 2.223-.819 2.223-1.899 0-1.206-.755-1.656-2.186-1.872-1.314-.189-1.549-.531-1.549-1.152 0-.612.45-1.044 1.341-1.044.9 0 1.36.324 1.512 1.143h.702c-.134-1.152-.918-1.773-2.213-1.773-1.215 0-2.07.765-2.07 1.746 0 1.152.8 1.557 2.15 1.773 1.224.189 1.558.504 1.558 1.233 0 .729-.64 1.215-1.468 1.215-1.287 0-1.602-.648-1.7-1.413h-.757c.117 1.098.738 2.043 2.457 2.043z" fill="#222"/>
</svg>
