<svg viewBox="0 0 40 40" fill="none" xmlns="http://www.w3.org/2000/svg">
    <path d="M24.664 2.014A18.153 18.153 0 0132.946 0H40v9.95h-2.846c-4.16 0-8.273.967-12.061 2.838l-4.532 2.237 10.28 5.077H40v9.949h-9.159l-14.706 8.154A14.149 14.149 0 019.264 40H0v-9.95h4.142a21.15 21.15 0 009.241-2.139l6.056-2.936-10.28-5.077H0V9.95h9.159l15.505-7.935z" fill="#70CE98"/>
    <path d="M24.664 2.014A18.153 18.153 0 0132.946 0H40v9.95h-2.846c-4.16 0-8.273.967-12.061 2.838l-4.532 2.237 10.28 5.077H40v9.949h-9.159l-14.706 8.154A14.149 14.149 0 019.264 40H0v-9.95h4.142a21.15 21.15 0 009.241-2.139l6.056-2.936-10.28-5.077H0V9.95h9.159l15.505-7.935z" fill="#C4C4C4"/>
</svg>
